<?xml version="1.0" encoding="UTF-8" standalone="no"?>
<svg
   xmlns:dc="http://purl.org/dc/elements/1.1/"
   xmlns:cc="http://creativecommons.org/ns#"
   xmlns:rdf="http://www.w3.org/1999/02/22-rdf-syntax-ns#"
   xmlns:svg="http://www.w3.org/2000/svg"
   xmlns="http://www.w3.org/2000/svg"
   xmlns:sodipodi="http://sodipodi.sourceforge.net/DTD/sodipodi-0.dtd"
   xmlns:inkscape="http://www.inkscape.org/namespaces/inkscape"
   version="1.1"
   viewBox="0.0 0.0 348.0 348.0"
   fill="none"
   stroke="none"
   stroke-linecap="square"
   stroke-miterlimit="10"
   id="svg3755"
   sodipodi:docname="X01.svg"
   inkscape:version="0.92.3 (2405546, 2018-03-11)">
  <metadata
     id="metadata3761">
    <rdf:RDF>
      <cc:Work
         rdf:about="">
        <dc:format>image/svg+xml</dc:format>
        <dc:type
           rdf:resource="http://purl.org/dc/dcmitype/StillImage" />
      </cc:Work>
    </rdf:RDF>
  </metadata>
  <defs
     id="defs3759" />
  <sodipodi:namedview
     pagecolor="#ffffff"
     bordercolor="#666666"
     borderopacity="1"
     objecttolerance="10"
     gridtolerance="10"
     guidetolerance="10"
     inkscape:pageopacity="0"
     inkscape:pageshadow="2"
     inkscape:window-width="1812"
     inkscape:window-height="1058"
     id="namedview3757"
     showgrid="false"
     inkscape:zoom="3.6127467"
     inkscape:cx="154.10388"
     inkscape:cy="151.82622"
     inkscape:window-x="100"
     inkscape:window-y="-8"
     inkscape:window-maximized="1"
     inkscape:current-layer="svg3755" />
  <clipPath
     id="p.0">
    <path
       d="m0 0l348.0 0l0 348.0l-348.0 0l0 -348.0z"
       clip-rule="nonzero"
       id="path3738" />
  </clipPath>
  <g
     clip-path="url(#p.0)"
     id="g3753">
    <path
       d="m0 0l348.0 0l0 348.0l-348.0 0z"
       id="path3741"
       fill-rule="nonzero"
       fill-opacity="0.0"
       fill="#000000" />
    <path
       d="m-6.0 0l348.0 0l0 347.9685l-348.0 0z"
       id="path3743"
       fill-rule="nonzero"
       fill="#ffffff" />
    <path
       d="m5.07874 5.7758217l336.9134 0l0 337.6693l-336.9134 0z"
       id="path3745"
       fill-rule="nonzero"
       fill-opacity="0.0"
       fill="#000000" />
    <path
       d="m5.07874 5.7758217l336.9134 0l0 337.6693l-336.9134 0z"
       id="path3747"
       stroke-linejoin="round"
       stroke-linecap="butt"
       stroke-width="2.0"
       stroke="#000000"
       fill-rule="nonzero" />
    <path
       d="m282.73444 40.553925l0 0c0 -8.375591 6.966034 -15.165352 15.5590515 -15.165352l0 0c4.126526 0 8.084015 1.5977726 11.001923 4.441828c2.9178772 2.844057 4.557129 6.7014217 4.557129 10.723524l0 0c0 8.375595 -6.9660034 15.165356 -15.5590515 15.165356l0 0c-8.593018 0 -15.5590515 -6.7897606 -15.5590515 -15.165356z"
       id="path3749"
       fill-rule="nonzero"
       fill="#ffffff" />
    <path
       d="m282.73444 40.553925l0 0c0 -8.375591 6.966034 -15.165352 15.5590515 -15.165352l0 0c4.126526 0 8.084015 1.5977726 11.001923 4.441828c2.9178772 2.844057 4.557129 6.7014217 4.557129 10.723524l0 0c0 8.375595 -6.9660034 15.165356 -15.5590515 15.165356l0 0c-8.593018 0 -15.5590515 -6.7897606 -15.5590515 -15.165356z"
       id="path3751"
       stroke-linejoin="round"
       stroke-linecap="butt"
       stroke-width="2.0"
       stroke="#000000"
       fill-rule="nonzero" />
  </g>
  <ellipse
     id="path3771"
     cx="170.28122"
     cy="174.97862"
     rx="99.820023"
     ry="100.21147" />
  <circle
     style="fill:#ffffff;fill-opacity:1;stroke:#000000;stroke-opacity:1"
     id="path4578"
     cx="160.26585"
     cy="187.73413"
     r="104.90633" />
  <circle
     style="fill:#ffffff;fill-opacity:1;stroke:#000000;stroke-opacity:1"
     id="path4580"
     cx="159.98907"
     cy="188.01093"
     r="92.450432" />
  <circle
     style="fill:#ffffff;fill-opacity:1;stroke:#000000;stroke-opacity:1"
     id="path4582"
     cx="159.98907"
     cy="188.01093"
     r="62.556282" />
  <circle
     style="fill:#ffffff;fill-opacity:1;stroke:#000000;stroke-opacity:1"
     id="path4584"
     cx="159.71228"
     cy="188.28772"
     r="50.100384" />
  <circle
     style="fill:#ffffff;fill-opacity:1;stroke:#000000;stroke-opacity:1"
     id="path4586"
     cx="159.98907"
     cy="188.01093"
     r="19.929434" />
  <circle
     style="fill:#ffffff;fill-opacity:1;stroke:#000000;stroke-opacity:1"
     id="path4588"
     cx="159.98907"
     cy="188.01093"
     r="9.9647169" />
  <path
     style="fill:#000000;fill-opacity:1;stroke:#000000;stroke-opacity:1"
     d="M 55.221142,188.01093 Z"
     id="path4594"
     inkscape:connector-curvature="0" />
  <path
     style="fill:#000000;fill-opacity:1;stroke:#000000;stroke-opacity:1"
     d="M 139.78284,188.01093 H 55.221142 Z"
     id="path4615"
     inkscape:connector-curvature="0" />
  <path
     style="fill:#000000;fill-opacity:1;stroke:#000000;stroke-opacity:1"
     d="M 265.10301,188.01092 H 180.5413 Z"
     id="path4615-0"
     inkscape:connector-curvature="0" />
  <path
     style="fill:#000000;fill-opacity:1;stroke:#000000;stroke-opacity:1"
     d="M 243.74179,125.23758 175.32993,174.9417 Z"
     id="path4615-8"
     inkscape:connector-curvature="0" />
  <path
     style="fill:#000000;fill-opacity:1;stroke:#000000;stroke-opacity:1"
     d="M 144.64822,200.52656 76.236356,250.23068 Z"
     id="path4615-6"
     inkscape:connector-curvature="0" />
  <path
     style="fill:#000000;fill-opacity:1;stroke:#000000;stroke-opacity:1"
     d="M 155.33951,207.58776 129.20852,288.0107 Z"
     id="path4615-68"
     inkscape:connector-curvature="0" />
  <path
     style="fill:#000000;fill-opacity:1;stroke:#000000;stroke-opacity:1"
     d="M 191.04642,88.011152 164.91543,168.43409 Z"
     id="path4615-1"
     inkscape:connector-curvature="0" />
  <path
     style="fill:#000000;fill-opacity:1;stroke:#000000;stroke-opacity:1"
     d="m 166.57621,206.75736 26.131,80.42296 z"
     id="path4615-7"
     inkscape:connector-curvature="0" />
  <path
     style="fill:#000000;fill-opacity:1;stroke:#000000;stroke-opacity:1"
     d="m 127.82454,88.287945 26.13099,80.422945 z"
     id="path4615-83"
     inkscape:connector-curvature="0" />
  <path
     style="fill:#000000;fill-opacity:1;stroke:#000000;stroke-opacity:1"
     d="m 176.91828,199.2953 68.41186,49.70412 z"
     id="path4615-89"
     inkscape:connector-curvature="0" />
  <path
     style="fill:#000000;fill-opacity:1;stroke:#000000;stroke-opacity:1"
     d="m 74.298769,127.45196 68.411861,49.70412 z"
     id="path4615-4"
     inkscape:connector-curvature="0" />
  <path
     style="fill:#000000;fill-opacity:1;stroke:#000000;stroke-width:0.27679771;stroke-opacity:1"
     d="m 136.92573,114.22456 c -2.39933,-7.39526 -4.36114,-13.52934 -4.35957,-13.63128 0.008,-0.49025 7.62534,-2.400232 12.89927,-3.234201 13.2074,-2.088492 27.05866,-1.278626 39.5864,2.314566 l 1.41363,0.405455 -4.37609,13.46147 c -2.40685,7.40381 -4.42203,13.5074 -4.47816,13.56354 -0.0561,0.0561 -1.46332,-0.2067 -3.12709,-0.58408 -5.20954,-1.18162 -8.97397,-1.58635 -14.65053,-1.57516 -6.45971,0.0127 -12.16466,0.78676 -17.29986,2.34714 l -1.24559,0.37849 z"
     id="path4724"
     inkscape:connector-curvature="0" />
  <path
     style="fill:#000000;fill-opacity:1;stroke:#000000;stroke-width:0.27679771;stroke-opacity:1"
     d="m 151.11886,157.88976 c -4.32006,-13.28887 -5.31933,-16.35199 -5.45775,-16.73009 -0.15331,-0.41877 3.72697,-1.36563 7.76642,-1.89516 3.75825,-0.49266 8.10678,-0.54367 11.66522,-0.13684 2.86826,0.32792 7.63794,1.28062 7.92033,1.582 0.17051,0.18198 -8.28967,26.68521 -8.62546,27.021 -0.0746,0.0746 -1.0675,0.0162 -2.20644,-0.12984 -1.92092,-0.24627 -6.14482,0.0232 -7.29752,0.4655 -0.31979,0.12271 -1.11826,-2.03563 -3.7648,-10.17657 z"
     id="path4726"
     inkscape:connector-curvature="0" />
  <path
     style="fill:#000000;fill-opacity:1;stroke:#000000;stroke-width:0.27679771;stroke-opacity:1"
     d="m 222.99196,184.02554 c -0.58927,-10.95322 -4.66332,-22.8149 -10.89355,-31.7168 -0.83478,-1.19276 -1.47644,-2.2025 -1.42591,-2.24389 0.28513,-0.23351 22.58267,-16.41086 22.83055,-16.56407 0.17459,-0.1079 1.10226,0.9912 2.23303,2.64568 9.64194,14.10757 15.02022,30.1617 15.99357,47.74068 l 0.18774,3.39077 h -14.37522 -14.37523 z"
     id="path4728"
     inkscape:connector-curvature="0" />
  <path
     style="fill:#000000;fill-opacity:1;stroke:#000000;stroke-width:0.27679771;stroke-opacity:1"
     d="m 180.263,184.99433 c -0.39491,-2.86585 -1.45678,-5.74503 -2.96665,-8.04384 l -1.16951,-1.78062 10.79011,-7.85507 c 5.93457,-4.32028 11.13497,-8.07992 11.55646,-8.35476 l 0.76633,-0.4997 1.40962,2.08897 c 4.84326,7.1774 7.72607,15.56959 8.44468,24.58342 l 0.17103,2.14518 h -14.3437 -14.34369 z"
     id="path4730"
     inkscape:connector-curvature="0" />
  <path
     style="fill:#000000;fill-opacity:1;stroke:#000000;stroke-width:0.27679771;stroke-opacity:1"
     d="m 184.99638,261.39883 -4.42705,-13.64062 2.07979,-0.76382 c 9.77908,-3.59146 20.84119,-11.76266 27.01629,-19.95601 0.75667,-1.00397 1.47539,-1.8285 1.59717,-1.83229 0.38845,-0.0121 22.74969,16.32595 22.82672,16.67815 0.1177,0.53811 -4.43741,6.06257 -8.22537,9.97578 -5.26499,5.43909 -10.97689,10.072 -17.45234,14.15555 -3.54306,2.23432 -11.91903,6.40849 -15.50067,7.72476 -1.44627,0.53152 -2.82261,1.04126 -3.05853,1.13276 -0.35169,0.1364 -1.22638,-2.29065 -4.85601,-13.47426 z"
     id="path4732"
     inkscape:connector-curvature="0" />
  <path
     style="fill:#000000;fill-opacity:1;stroke:#000000;stroke-width:0.27679771;stroke-opacity:1"
     d="m 176.30305,234.75043 c 0,-0.0752 -1.91341,-6.02287 -4.25202,-13.21709 -2.33861,-7.19422 -4.33704,-13.3515 -4.44095,-13.68284 -0.16737,-0.53369 0.0731,-0.73818 2.10684,-1.79178 1.71092,-0.88635 2.91747,-1.80139 4.73622,-3.5919 l 2.44044,-2.40257 11.39944,8.27462 c 6.26969,4.55104 11.4348,8.43706 11.47801,8.63559 0.11172,0.51322 -4.02656,5.38792 -6.39496,7.53297 -4.27624,3.87298 -8.70641,6.77865 -13.80827,9.05662 -2.98879,1.33449 -3.26475,1.43477 -3.26475,1.18638 z"
     id="path4734"
     inkscape:connector-curvature="0" />
  <path
     style="fill:#000000;fill-opacity:1;stroke:#000000;stroke-width:0.27679771;stroke-opacity:1"
     d="m 129.4526,274.60897 c -12.66978,-4.41769 -24.13976,-11.65203 -34.007436,-21.44917 -3.562279,-3.53682 -8.547769,-9.18788 -8.547769,-9.68892 0,-0.0983 5.177426,-3.94453 11.505392,-8.54726 l 11.505393,-8.3686 0.60411,0.77528 c 6.77784,8.69821 17.22684,16.21899 27.78685,19.9999 2.32222,0.83144 2.96978,1.17305 2.90284,1.53132 -0.24125,1.29119 -8.60377,26.56489 -8.80873,26.62227 -0.13169,0.0369 -1.45498,-0.3568 -2.94065,-0.87482 z"
     id="path4736"
     inkscape:connector-curvature="0" />
  <path
     style="fill:#000000;fill-opacity:1;stroke:#000000;stroke-width:0.27679771;stroke-opacity:1"
     d="m 142.86243,234.74064 c -7.57288,-2.71059 -14.89819,-7.66276 -20.02519,-13.53774 -1.18741,-1.36065 -2.1304,-2.49503 -2.09553,-2.52085 4.74596,-3.51411 23.46866,-17.01066 23.59755,-17.01066 0.10207,0 0.9898,0.73693 1.97274,1.63761 1.731,1.58615 4.95746,3.48153 7.08604,4.16271 0.5709,0.18269 1.03799,0.45421 1.03799,0.60338 0,0.28443 -8.78623,27.38958 -8.91928,27.51559 -0.0421,0.0399 -1.2366,-0.34259 -2.65432,-0.85004 z"
     id="path4738"
     inkscape:connector-curvature="0" />
  <path
     style="fill:#000000;fill-opacity:1;stroke:#000000;stroke-width:0.27679771;stroke-opacity:1"
     d="m 68.217249,184.44073 c 1.042924,-17.67135 5.695347,-32.32112 14.723996,-46.36361 0.807528,-1.25597 1.538138,-2.28358 1.623578,-2.28358 0.323995,0 23.078727,16.68321 22.980877,16.84901 -0.0565,0.0957 -0.80262,1.33181 -1.65803,2.74686 -1.93222,3.19633 -2.53736,4.3877 -4.1764,8.2223 -2.748579,6.43043 -4.849158,16.01804 -4.849158,22.13291 v 1.53329 H 82.455958 68.049805 Z"
     id="path4740"
     inkscape:connector-curvature="0" />
  <path
     style="fill:#000000;fill-opacity:1;stroke:#000000;stroke-width:0.27679771;stroke-opacity:1"
     d="m 110.33434,185.40953 c 0.37218,-5.69114 1.87616,-11.95114 4.06758,-16.93053 1.31251,-2.98229 4.01847,-7.77367 4.39023,-7.77367 0.12024,0 5.44062,3.79964 11.82308,8.44364 l 11.60447,8.44365 -0.9189,2.00547 c -0.94322,2.05853 -1.81184,5.33526 -1.81184,6.83487 v 0.84495 h -14.63841 -14.6384 z"
     id="path4742"
     inkscape:connector-curvature="0" />
  <path
     style="fill:#000000;fill-opacity:1;stroke:#000000;stroke-width:0.27679771;stroke-opacity:1"
     d="m 114.08623,155.6021 c -2.32523,-1.71683 -4.30582,-3.19963 -4.4013,-3.29511 -0.32508,-0.32508 3.08002,-4.46338 6.55115,-7.96177 6.15833,-6.20669 12.71492,-10.54969 20.89764,-13.84236 l 3.31911,-1.33558 1.72604,5.31991 c 0.94932,2.92595 1.72892,5.38261 1.73245,5.45923 0.004,0.0766 -0.83437,0.43026 -1.86198,0.78586 -2.62354,0.90785 -7.53209,3.40681 -10.29442,5.24094 -4.51378,2.99705 -8.64837,6.80785 -11.96443,11.02746 -0.76378,0.97189 -1.40846,1.75714 -1.43262,1.745 -0.0242,-0.0122 -1.9464,-1.42676 -4.27164,-3.14358 z"
     id="path4744"
     inkscape:connector-curvature="0" />
  <path
     style="fill:#000000;fill-opacity:1;stroke:#000000;stroke-width:0.27679771;stroke-opacity:1"
     d="m 79.974652,130.79847 c -2.35816,-1.70644 -4.385654,-3.19107 -4.505541,-3.29916 -0.248816,-0.22435 2.735452,-4.21896 5.900702,-7.89844 1.178664,-1.37015 3.994441,-4.30383 6.257283,-6.5193 10.693158,-10.46929 23.044354,-18.229316 37.380764,-23.485634 l 2.26517,-0.830502 1.6792,5.037997 c 0.92356,2.770898 1.6792,5.242385 1.6792,5.492194 0,0.265077 -0.31695,0.532999 -0.76119,0.64345 -1.60623,0.399355 -6.73545,2.516315 -10.44912,4.312625 -9.82426,4.75202 -18.15466,10.78261 -26.034711,18.84718 -3.134041,3.20743 -7.382001,8.16994 -8.706196,10.17066 l -0.417996,0.63155 z"
     id="path4746"
     inkscape:connector-curvature="0" />
  <path
     style="fill:#000000;fill-opacity:1;stroke:#000000;stroke-width:0.27679771;stroke-opacity:1"
     d="m 232.54555,129.69535 c -3.30566,-4.20049 -9.60279,-10.50936 -14.10744,-14.13373 -8.16419,-6.56878 -17.96835,-12.05054 -27.23749,-15.22917 -1.41904,-0.486629 -2.68439,-0.976123 -2.8119,-1.087767 -0.12751,-0.111644 0.54523,-2.635155 1.49497,-5.607802 l 1.7268,-5.404812 2.7954,0.969068 c 14.4674,5.015359 28.26839,13.635393 39.19429,24.480593 3.8827,3.85402 9.98378,10.89632 9.65209,11.14113 -0.0564,0.0416 -2.16141,1.57062 -4.67778,3.39773 l -4.57521,3.32202 z"
     id="path4748"
     inkscape:connector-curvature="0" />
  <path
     style="fill:#000000;fill-opacity:1;stroke:#000000;stroke-width:0.27679771;stroke-opacity:1"
     d="m 197.34613,154.30855 c -5.5291,-6.09369 -12.96266,-11.10785 -20.28188,-13.68074 -1.17985,-0.41475 -2.14519,-0.81311 -2.14519,-0.88525 0,-0.18395 3.36366,-10.41006 3.50317,-10.65024 0.17336,-0.29846 4.56436,1.31982 7.98394,2.94244 7.71172,3.65926 14.5613,8.85196 20.26559,15.36347 1.94673,2.2222 2.01946,2.35373 1.54536,2.79458 -0.54106,0.5031 -8.5917,6.36056 -8.74212,6.36056 -0.0506,0 -1.00862,-1.01017 -2.12887,-2.24482 z"
     id="path4750"
     inkscape:connector-curvature="0" />
  <path
     style="fill:#000000;fill-opacity:1;stroke:#000000;stroke-width:0.27679771;stroke-opacity:1"
     d="m 206.14704,219.76156 -4.34052,-3.18332 1.08213,-1.67428 c 1.37584,-2.12869 3.58147,-6.67222 4.54249,-9.3574 1.62948,-4.55289 2.90237,-11.11464 2.91296,-15.01628 l 0.005,-1.86838 h 5.84214 5.84214 l -0.18224,2.56038 c -0.65842,9.25092 -2.99819,17.78532 -6.93338,25.28971 -1.93479,3.68963 -3.71016,6.47766 -4.10908,6.45286 -0.17665,-0.011 -2.27442,-1.45246 -4.66171,-3.20329 z"
     id="path4752"
     inkscape:connector-curvature="0" />
  <path
     style="fill:#000000;fill-opacity:1;stroke:#000000;stroke-width:0.27679771;stroke-opacity:1"
     d="m 240.65852,244.82739 c -2.28358,-1.67384 -4.19131,-3.1562 -4.23939,-3.29413 -0.0481,-0.13792 0.5259,-1.16035 1.27553,-2.27207 8.90841,-13.21133 14.52485,-30.40258 15.1971,-46.51652 l 0.17032,-4.08277 h 5.79998 5.79997 l -0.18491,3.11397 c -0.92176,15.52341 -4.09696,28.26352 -10.23002,41.04674 -2.86813,5.9781 -8.38837,15.09137 -9.12303,15.06106 -0.17247,-0.007 -2.18197,-1.38244 -4.46555,-3.05628 z"
     id="path4754"
     inkscape:connector-curvature="0" />
  <path
     style="fill:#000000;fill-opacity:1;stroke:#000000;stroke-width:0.27679771;stroke-opacity:1"
     d="m 152.22165,291.71824 c -3.08444,-0.22902 -8.50965,-1.00914 -12.31749,-1.77119 -4.32794,-0.86613 -9.27035,-2.11518 -9.60603,-2.42764 -0.33315,-0.31011 2.99613,-10.14909 3.41842,-10.10242 0.20617,0.0228 1.93184,0.42918 3.83482,0.90309 7.76497,1.93377 13.79055,2.64447 22.42062,2.64447 10.16645,0 17.36004,-1.06296 28.1096,-4.15363 0.52154,-0.14995 0.70481,0.26458 2.2303,5.04449 l 1.66207,5.20786 -1.53831,0.4849 c -5.53806,1.7457 -14.8207,3.52897 -21.19094,4.07096 -3.03139,0.25791 -14.0225,0.32191 -17.02306,0.0991 z"
     id="path4756"
     inkscape:connector-curvature="0" />
  <path
     style="fill:#000000;fill-opacity:1;stroke:#000000;stroke-width:0.27679771;stroke-opacity:1"
     d="m 152.77525,249.5421 c -3.77336,-0.46575 -9.68792,-1.77244 -9.68792,-2.14033 0,-0.38089 3.11649,-9.61115 3.32107,-9.83618 0.11395,-0.12535 1.43741,0.0276 2.94102,0.33997 7.71689,1.60297 15.21749,1.43575 22.92288,-0.51104 1.81741,-0.45917 3.32425,-0.80637 3.34853,-0.77154 0.0243,0.0348 0.79054,2.38643 1.7028,5.22578 l 1.65865,5.16246 -2.78556,0.74855 c -5.48463,1.47386 -8.16814,1.82016 -14.97914,1.93305 -3.50149,0.058 -7.30054,-0.01 -8.44233,-0.15072 z"
     id="path4758"
     inkscape:connector-curvature="0" />
  <path
     style="fill:#000000;fill-opacity:1;stroke:#000000;stroke-width:0.27679771;stroke-opacity:1"
     d="m 109.13199,223.32514 c -6.76392,-10.085 -10.300841,-20.45804 -10.993389,-32.24126 l -0.14235,-2.42198 h 5.522479 5.52248 v 1.50821 c 0,4.22551 1.56418,11.92126 3.32287,16.34851 1.23964,3.1206 3.37068,7.23501 5.03605,9.72309 l 1.48985,2.22586 -4.05505,2.94436 c -2.23027,1.6194 -4.22827,3.0069 -4.43999,3.08335 -0.23715,0.0856 -0.72203,-0.36363 -1.26295,-1.17014 z"
     id="path4760"
     inkscape:connector-curvature="0" />
  <path
     style="fill:#000000;fill-opacity:1;stroke:#000000;stroke-width:0.27679771;stroke-opacity:1"
     d="m 73.683018,245.72247 c -10.6406,-16.00354 -16.284509,-32.83822 -17.505872,-52.21661 -0.153523,-2.43582 -0.279574,-4.52218 -0.280113,-4.63636 -5.4e-4,-0.11418 2.490198,-0.2076 5.534973,-0.2076 h 5.535954 l 0.0029,2.00678 c 0.0097,6.7935 1.666664,16.95757 4.043077,24.80037 2.514859,8.29971 7.474757,18.48528 12.415387,25.49606 l 1.531549,2.17328 -1.453697,1.0427 c -0.799533,0.57349 -2.771999,2.00473 -4.383257,3.18054 l -2.92956,2.13784 -2.511296,-3.777 z"
     id="path4762"
     inkscape:connector-curvature="0" />
  <path
     style="fill:#000000;fill-opacity:1;stroke:#000000;stroke-width:0.27679771;stroke-opacity:1"
     d="m 156.92871,196.79438 c -3.05745,-1.10275 -5.16948,-3.50761 -5.98585,-6.81578 -0.52365,-2.12198 -0.31136,-3.89364 0.7327,-6.11478 0.73067,-1.55445 2.9002,-3.62312 4.63793,-4.42232 1.86252,-0.85659 5.46897,-0.8497 7.34872,0.014 6.04692,2.77852 7.52327,10.46334 2.8986,15.088 -1.81823,1.81823 -3.51557,2.54057 -6.17362,2.6273 -1.50627,0.0491 -2.61222,-0.0712 -3.45848,-0.37646 z"
     id="path4764"
     inkscape:connector-curvature="0" />
</svg>
